<svg width="168" height="24" viewBox="0 0 168 24" fill="none" xmlns="http://www.w3.org/2000/svg">
<path d="M2.53264 7.47832H8.60192C10.4256 7.47832 11.7647 7.99656 12.6193 9.03271C13.4736 10.0692 13.7509 11.5134 13.4509 13.3655C13.3279 14.1253 13.1085 14.8227 12.7924 15.4578C12.4762 16.0929 12.0587 16.6732 11.5397 17.1982C10.9226 17.8299 10.2318 18.2826 9.46687 18.5557C8.70196 18.8288 7.72372 18.9654 6.53241 18.9654H3.82905L3.15643 23.1198H0L2.53264 7.47832ZM5.28815 9.9528L4.22589 16.5136H6.14568C7.41822 16.5136 8.36133 16.2543 8.97535 15.735C9.58887 15.2157 9.99355 14.3516 10.1895 13.1424C10.3783 11.9763 10.2685 11.1534 9.86107 10.6729C9.45335 10.1929 8.65 9.9528 7.45083 9.9528H5.28815Z" fill="#6C78AF"/>
<path d="M16.9944 3.32391H20.127L19.4544 7.47832H22.2413C23.9953 7.47832 25.2109 7.81017 25.8885 8.47329C26.5664 9.13682 26.7861 10.2057 26.5473 11.681L25.3677 18.9654H22.1877L23.3102 12.0325C23.4381 11.2443 23.3761 10.7084 23.1247 10.4242C22.8733 10.1405 22.3472 9.9982 21.5471 9.9982H19.0468L17.5949 18.9654H14.4618L16.9944 3.32391Z" fill="#6C78AF"/>
<path d="M29.9592 7.47832H36.0284C37.8525 7.47832 39.1912 7.99656 40.0458 9.03271C40.9003 10.0692 41.1774 11.5134 40.8776 13.3655C40.7546 14.1253 40.535 14.8227 40.2193 15.4578C39.9029 16.0929 39.4851 16.6732 38.9664 17.1982C38.3491 17.8299 37.6584 18.2826 36.8934 18.5557C36.1286 18.8288 35.1505 18.9654 33.9587 18.9654H31.2558L30.5832 23.1198H27.4269L29.9592 7.47832ZM32.7151 9.9528L31.6528 16.5136H33.5726C34.8451 16.5136 35.7881 16.2543 36.4017 15.735C37.0154 15.2157 37.4203 14.3516 37.6161 13.1424C37.8048 11.9763 37.6952 11.1534 37.2876 10.6729C36.8799 10.1929 36.0765 9.9528 34.8777 9.9528H32.7151Z" fill="#6C78AF"/>
<path d="M46.2132 0H52.2839L54.9507 14.5434L62.3272 0H68.3749L65.3067 18.9524H61.2536L63.9781 4.19011L56.5403 18.9524H52.1483L49.355 4.03541L47.3545 18.9524H43.1446L46.2132 0Z" fill="#F89C0E"/>
<path d="M75.6604 15.8854H78.7253L80.4819 5.03381H84.2919L82.099 18.5787C81.8013 20.4202 81.1344 21.7842 80.0993 22.6706C79.0642 23.5567 77.6282 24 75.7919 24H68.3207L68.7773 21.1805H75.5927C76.324 21.1805 76.9137 21.0099 77.3616 20.669C77.809 20.3276 78.0859 19.8333 78.1906 19.1856L78.2286 18.9524H74.8562C72.699 18.9524 71.2279 18.542 70.4433 17.721C69.6582 16.9002 69.4214 15.5312 69.7312 13.6143L71.1209 5.03381H74.8879L73.5445 13.3307C73.3747 14.3802 73.4256 15.0684 73.699 15.3952C73.9718 15.722 74.6254 15.8854 75.6604 15.8854Z" fill="#F89C0E"/>
<path d="M94.5532 0H98.9403L104.257 18.9524H99.6562L98.5807 14.4413H90.0353L87.5527 18.9524H83.1651L94.5532 0ZM95.9771 3.76331L91.9202 11.0579H97.7782L95.9771 3.76331Z" fill="#F89C0E"/>
<path d="M118.621 18.9524H111.302C109.09 18.9524 107.466 18.3247 106.429 17.0691C105.392 15.8136 105.056 14.0635 105.42 11.8191C105.569 10.8989 105.835 10.0539 106.218 9.28432C106.602 8.51456 107.108 7.81159 107.737 7.17508C108.485 6.40983 109.325 5.86161 110.258 5.53048C111.19 5.19929 112.374 5.03381 113.81 5.03381H117.078L117.893 0H121.689L118.621 18.9524ZM115.308 15.9679L116.593 8.03208H114.289C112.744 8.03208 111.597 8.34413 110.848 8.96755C110.1 9.59142 109.608 10.6302 109.373 12.0838C109.144 13.4948 109.279 14.4948 109.778 15.084C110.276 15.6733 111.249 15.9679 112.696 15.9679H115.308Z" fill="#F89C0E"/>
<path d="M124.186 5.03381H138.817C140.939 5.03381 142.403 5.43376 143.209 6.23274C144.015 7.03215 144.273 8.32993 143.982 10.1261L142.553 18.9524H138.715L140.066 10.6034C140.232 9.5798 140.181 8.90462 139.914 8.5775C139.645 8.25066 139.013 8.0871 138.016 8.0871H135.879L134.12 18.9524H130.224L131.983 8.0871H127.53L125.771 18.9524H121.932L124.186 5.03381Z" fill="#F89C0E"/>
<path d="M152.466 3.45215H148.47L149.029 0H153.025L152.466 3.45215ZM149.956 18.9524H145.96L148.214 5.03381H152.209L149.956 18.9524Z" fill="#F89C0E"/>
<path d="M155.505 5.03381H162.674C164.84 5.03381 166.324 5.42733 167.123 6.21343C167.923 6.99997 168.176 8.30419 167.881 10.1261L166.452 18.9524H162.642L163.998 10.5776C164.166 9.53662 164.108 8.86137 163.824 8.55192C163.539 8.24207 162.893 8.0871 161.885 8.0871H158.821L157.062 18.9524H153.252L155.505 5.03381Z" fill="#F89C0E"/>
</svg>
